<?xml version="1.0" encoding="UTF-8"?>
<!DOCTYPE svg PUBLIC "-//W3C//DTD SVG 1.1//EN" "http://www.w3.org/Graphics/SVG/1.1/DTD/svg11.dtd">
<!-- Creator: CorelDRAW 2020 (64 Bit) -->
<svg xmlns="http://www.w3.org/2000/svg" xml:space="preserve" width="909.484mm" height="886.562mm" version="1.1" style="shape-rendering:geometricPrecision; text-rendering:geometricPrecision; image-rendering:optimizeQuality; fill-rule:evenodd; clip-rule:evenodd"
viewBox="0 0 16899.19 16473.27"
 xmlns:xlink="http://www.w3.org/1999/xlink"
 xmlns:xodm="http://www.corel.com/coreldraw/odm/2003">
 <defs>
  <style type="text/css">
   <![CDATA[
    .fil0 {fill:#423504}
    .fil1 {fill:#F4D50E}
   ]]>
  </style>
 </defs>
 <g id="Camada_x0020_1">
  <metadata id="CorelCorpID_0Corel-Layer"/>
  <path class="fil0" d="M206.25 6971.88c0,494.18 169.11,974.05 338.68,1313.18 79.56,159.12 163.51,303 253.32,454.62 62.87,106.15 136.52,204.77 204.09,307.2 27.54,41.74 57.06,74.67 86.2,117.01 94.32,137.04 205.36,262.38 309.75,391.63l152.33 175.42c81.92,96.33 175.92,183.56 256.98,280.53 56.85,68.01 261.5,262.07 330.73,331.32l584.06 530.29c21.06,16.92 36.05,32.25 59.97,44.91l-122.91 545.7c-57.42,289.33 -102.46,567.83 -141.26,861.65l-63.79 683.48c-11.34,380.39 -11.27,792.01 37.57,1162.42 31.83,241.4 68,451.73 140.48,665.78 120.04,354.48 241.88,631.95 491.32,924.56l20.99 24.89c100.72,112.57 219.28,220.32 345.53,303.42 160.74,105.8 300.14,176.88 482.2,245.41 540.99,203.62 1198.73,155.69 1754.43,24.72 87.77,-20.69 163.64,-42.45 250.42,-64.22 83.9,-21.06 155.56,-47.24 237,-71.08 160.94,-47.12 529.01,-179.85 688.92,-255l322.47 -142.93c105.62,-42.76 213.81,-102.25 317.74,-154.22 72.13,-36.07 139.38,-67.07 209.02,-105.62l302.28 -163.12c36.64,-18.58 63.84,-38.26 100.47,-56.85 35.67,-18.09 67.59,-37.53 100.15,-57.17 32.06,-19.33 67.02,-39.08 99.07,-58.26l196.28 -118.35c66.12,34.99 128.18,74.6 193.79,114.3l1021.07 545.57c142.5,71.37 289.47,129.56 434.77,194.51 18.35,8.2 32.02,13.6 50.31,21.8 129.21,57.91 266.42,100.62 397.66,152.95 73.6,29.35 156.46,54.67 235.18,79.46 76.43,24.07 160.01,51.84 241.96,72.68l250.39 64.25c486.7,118.38 1064.59,159.84 1557.54,36.63 184.78,-46.19 365.59,-114.55 526.75,-207.41l152.35 -96.74c98.41,-65.6 186.14,-139.59 269.09,-222.54 67.49,-67.49 138.19,-141.35 192.39,-220.57 206.34,-301.59 340.22,-558.81 443.2,-959.57 123.77,-481.68 174.83,-1160.43 130.05,-1706.04 -4.72,-57.45 -2.82,-106.34 -7.27,-163.17 -3.78,-48.27 -8.26,-103.72 -13.79,-156.64 -21.52,-205.99 -45.18,-405.43 -74.78,-606.94 -54.6,-371.78 -120.73,-647.16 -193.47,-999.54 -8.36,-40.51 -28.97,-98.86 -32.24,-138.19 23.27,-15.58 33.1,-23.93 55.42,-42.91l323.29 -286.33c5.75,-5.34 8.62,-7.65 13.8,-12.42l85.21 -78.66c0.99,-0.91 2.39,-2.27 3.38,-3.18l162.86 -151.78c44.56,-39.01 262.33,-253.56 303.68,-305.93l25.04 -27.41c0.95,-0.96 2.33,-2.32 3.26,-3.29 1.32,-1.37 4.97,-5.45 6.26,-6.85l161.52 -172.79c5.96,-6.97 5.49,-6.11 9.35,-10.31l265.79 -304.49c0.88,-1.03 2.14,-2.51 3.02,-3.54 95.71,-111.91 185.85,-230.41 274.07,-348.66l168.49 -237.92c15.16,-20.78 25.76,-36.7 40.13,-58.2l193.38 -317.91c210.48,-365.57 374.78,-759.87 445.43,-1180.21 68.29,-406.35 18.18,-816.51 -127.38,-1164 -48.2,-115.08 -103.57,-214.84 -167.62,-310.89 -94.45,-141.66 -201.77,-272.13 -322.71,-391.79 -77.77,-76.95 -167.11,-151.14 -255.04,-216.92 -255.25,-190.97 -476.88,-309.7 -755.18,-444.38 -431.41,-208.78 -967.25,-359.19 -1442.61,-464.9 -322.42,-71.7 -677.85,-126.64 -1015.23,-171.22 -137.51,-18.17 -457.34,-55.11 -594.63,-60.87 -41.48,-1.74 -64.11,9.11 -81.79,-36.2 -164.38,-421.34 -428.49,-966.67 -651.97,-1353.85 -83.12,-144 -164.1,-293.07 -257.26,-431.02l-183.59 -275.26c-122.08,-183.19 -262.19,-347.78 -399.45,-518.25l-452.9 -464.8c-13.37,-12.44 -16.13,-12.09 -29.25,-23.19 -246.86,-208.79 -507.07,-391.55 -811.03,-513.08 -768.94,-307.45 -1515.79,-122.56 -2139.74,345.56 -75.52,56.66 -157.31,114.53 -225.57,180.84 -96.81,94.03 -207.58,178.47 -292.24,284.6 -9.7,12.17 -17.44,18.9 -28.82,30.17l-376.7 449.23c-150.17,200.07 -292.34,405.88 -421.69,620.56 -14.23,23.63 -30.79,48.64 -45.22,72.77 -29.8,49.81 -58.4,96.14 -87.6,148.38l-247.07 454.32c-66.29,132.58 -175.88,336.58 -230.34,471.04l-143.47 321.93c-23.65,54.01 -47.41,108.73 -70.06,165.92 -33.32,84.12 -18.03,61.91 -105.76,71.22 -20.26,2.15 -24.5,4.86 -53.42,5.58 -168.48,4.21 -670.53,72.78 -834.45,96.36 -269.33,38.73 -530.5,82.38 -789.92,147.44 -59.17,14.84 -126.67,28.73 -186.25,43.17 -364.08,88.27 -799.61,226.59 -1136.96,383.8 -27.67,12.89 -55.34,24.48 -80.92,37.07 -153.96,75.83 -302.51,157.51 -450.11,244.72 -94.7,55.96 -189.85,120.38 -275.36,190.04l-129.35 106.63c-26.79,20.81 -38.18,37.34 -61.8,56.19 -26.27,20.96 -37.87,32.64 -61.61,56.38l-166.77 180.65 -150.16 203.81c-59.06,88.47 -119.66,199.15 -162.76,302.64 -92.1,221.17 -161.06,467.1 -161.06,776.3z"/>
  <path class="fil1" d="M-0 6598.4c0,494.18 169.11,974.05 338.68,1313.18 79.56,159.12 163.51,303 253.32,454.62 62.87,106.15 136.52,204.77 204.09,307.2 27.54,41.74 57.06,74.67 86.2,117.01 94.32,137.04 205.36,262.38 309.75,391.63l152.33 175.42c81.92,96.33 175.92,183.56 256.98,280.53 56.85,68.01 261.5,262.07 330.73,331.32l584.06 530.29c21.06,16.92 36.05,32.25 59.97,44.91l-122.91 545.7c-57.42,289.33 -102.46,567.83 -141.26,861.65l-63.79 683.48c-11.34,380.39 -11.27,792.01 37.57,1162.42 31.83,241.4 68,451.73 140.48,665.78 120.04,354.48 241.88,631.95 491.32,924.56l20.99 24.89c100.72,112.57 219.28,220.32 345.53,303.42 160.74,105.8 300.14,176.88 482.2,245.41 540.99,203.62 1198.73,155.69 1754.43,24.72 87.77,-20.69 163.64,-42.45 250.42,-64.22 83.9,-21.06 155.56,-47.24 237,-71.08 160.94,-47.12 529.01,-179.85 688.92,-255l322.47 -142.93c105.62,-42.76 213.81,-102.25 317.74,-154.22 72.13,-36.07 139.38,-67.07 209.02,-105.62l302.28 -163.12c36.64,-18.58 63.84,-38.26 100.47,-56.85 35.67,-18.09 67.59,-37.53 100.15,-57.17 32.06,-19.33 67.02,-39.08 99.07,-58.26l196.28 -118.35c66.12,34.99 128.18,74.6 193.79,114.3l1021.07 545.57c142.5,71.37 289.47,129.56 434.77,194.51 18.35,8.2 32.02,13.6 50.31,21.8 129.21,57.91 266.42,100.62 397.66,152.95 73.6,29.35 156.46,54.67 235.18,79.46 76.43,24.07 160.01,51.84 241.96,72.68l250.39 64.25c486.7,118.38 1064.59,159.84 1557.54,36.63 184.78,-46.19 365.59,-114.55 526.75,-207.41l152.35 -96.74c98.41,-65.6 186.14,-139.59 269.09,-222.54 67.49,-67.49 138.19,-141.35 192.39,-220.57 206.34,-301.59 340.22,-558.81 443.2,-959.57 123.77,-481.68 174.83,-1160.43 130.05,-1706.04 -4.72,-57.45 -2.82,-106.34 -7.27,-163.17 -3.78,-48.27 -8.26,-103.72 -13.79,-156.64 -21.52,-205.99 -45.18,-405.43 -74.78,-606.94 -54.6,-371.78 -120.73,-647.16 -193.47,-999.54 -8.36,-40.51 -28.97,-98.86 -32.24,-138.19 23.27,-15.58 33.1,-23.93 55.42,-42.91l323.29 -286.33c5.75,-5.34 8.62,-7.65 13.8,-12.42l85.21 -78.66c0.99,-0.91 2.39,-2.27 3.38,-3.18l162.86 -151.78c44.56,-39.01 262.33,-253.56 303.68,-305.93l25.04 -27.41c0.95,-0.96 2.33,-2.32 3.26,-3.29 1.32,-1.37 4.97,-5.45 6.26,-6.85l161.52 -172.79c5.96,-6.97 5.49,-6.11 9.35,-10.31l265.79 -304.49c0.88,-1.03 2.14,-2.51 3.02,-3.54 95.71,-111.91 185.85,-230.41 274.07,-348.66l168.49 -237.92c15.16,-20.78 25.76,-36.7 40.13,-58.2l193.38 -317.91c210.48,-365.57 374.78,-759.87 445.43,-1180.21 68.29,-406.35 18.18,-816.51 -127.38,-1164 -48.2,-115.08 -103.57,-214.84 -167.62,-310.89 -94.45,-141.66 -201.77,-272.13 -322.71,-391.79 -77.77,-76.95 -167.11,-151.14 -255.04,-216.92 -255.25,-190.97 -476.88,-309.7 -755.18,-444.38 -431.41,-208.78 -967.25,-359.19 -1442.61,-464.9 -322.42,-71.7 -677.85,-126.64 -1015.23,-171.22 -137.51,-18.17 -457.34,-55.11 -594.63,-60.87 -41.48,-1.74 -64.11,9.11 -81.79,-36.2 -164.38,-421.34 -428.49,-966.67 -651.97,-1353.85 -83.12,-144 -164.1,-293.07 -257.26,-431.02l-183.59 -275.26c-122.08,-183.19 -262.19,-347.78 -399.45,-518.25l-452.9 -464.8c-13.37,-12.44 -16.13,-12.09 -29.25,-23.19 -246.86,-208.79 -507.07,-391.55 -811.03,-513.08 -768.94,-307.45 -1515.79,-122.56 -2139.74,345.56 -75.52,56.66 -157.31,114.53 -225.57,180.84 -96.81,94.03 -207.58,178.47 -292.24,284.6 -9.7,12.17 -17.44,18.9 -28.82,30.17l-376.7 449.23c-150.17,200.07 -292.34,405.88 -421.69,620.56 -14.23,23.63 -30.79,48.64 -45.22,72.77 -29.8,49.81 -58.4,96.14 -87.6,148.38l-247.07 454.32c-66.29,132.58 -175.88,336.58 -230.34,471.04l-143.47 321.93c-23.65,54.01 -47.41,108.73 -70.06,165.92 -33.32,84.12 -18.03,61.91 -105.76,71.22 -20.26,2.15 -24.5,4.86 -53.42,5.58 -168.48,4.21 -670.53,72.78 -834.45,96.36 -269.33,38.73 -530.5,82.38 -789.92,147.44 -59.17,14.84 -126.67,28.73 -186.25,43.17 -364.08,88.27 -799.61,226.59 -1136.96,383.8 -27.67,12.89 -55.34,24.48 -80.92,37.07 -153.96,75.83 -302.51,157.51 -450.11,244.72 -94.7,55.96 -189.85,120.38 -275.36,190.04l-129.35 106.63c-26.79,20.81 -38.18,37.34 -61.8,56.19 -26.27,20.96 -37.87,32.64 -61.61,56.38l-166.77 180.65 -150.16 203.81c-59.06,88.47 -119.66,199.15 -162.76,302.64 -92.1,221.17 -161.06,467.1 -161.06,776.3z"/>
 </g>
</svg>
