<?xml version="1.0" encoding="UTF-8"?>
<!DOCTYPE svg PUBLIC "-//W3C//DTD SVG 1.1//EN" "http://www.w3.org/Graphics/SVG/1.1/DTD/svg11.dtd">
<!-- Creator: CorelDRAW -->
<svg xmlns="http://www.w3.org/2000/svg" xml:space="preserve" width="105.29mm" height="107.436mm" version="1.1" style="shape-rendering:geometricPrecision; text-rendering:geometricPrecision; image-rendering:optimizeQuality; fill-rule:evenodd; clip-rule:evenodd"
viewBox="0 0 1927.12 1966.39"
 xmlns:xlink="http://www.w3.org/1999/xlink"
 xmlns:xodm="http://www.corel.com/coreldraw/odm/2003">
 <defs>
  <style type="text/css">
   <![CDATA[
    .fil0 {fill:#00B9AE}
   ]]>
  </style>
 </defs>
 <g id="Camada_x0020_1">
  <metadata id="CorelCorpID_0Corel-Layer"/>
  <g id="_1145403428912">
   <g id="_1436576623680">
    <path class="fil0" d="M894.37 334.11c-47.26,-64.58 -71.1,-104.27 -154.5,-135.96 -151.84,-57.68 -327.27,23.44 -376.16,180.13 -12.82,41.1 -17.26,89.32 -10.16,135.43 7.84,50.87 25.29,68.86 38.02,109.16l-78.27 0.16c-35.72,222.82 145.65,401.61 294.88,526.6 199.7,167.26 562.46,382.87 860.83,388.82 62.09,1.24 136.1,-0.4 172.53,-37.61 113.13,-115.54 -118.62,-306.15 -203.81,-367.28 -44.23,-31.73 -80.14,-54.7 -124.69,-81.94 -23.78,-14.54 -40.05,-23.8 -65.32,-37.92l-69.94 -41.92c134.86,30.03 345.96,178.44 400.78,201.4l9.82 -528.22 -53.26 -1.65c11.47,-26.77 54.93,-55.57 85.1,-138.69 66.25,-182.49 -9.3,-370.58 -176.92,-461.34 -194.44,-105.28 -443.99,-10.9 -523.62,200.07 -10.17,26.92 -13.64,69.08 -25.28,90.73l-0.03 0.01zm-301.12 13.32c-168.35,72.14 -62.49,292.04 85.53,242.44 58.99,-19.77 107.11,-91.49 80.76,-166.26 -19.23,-54.59 -86.43,-110.41 -166.29,-76.18l-0 -0zm631.89 -182.56c-104.26,25.01 -198.31,124.16 -164.43,261 24.15,97.59 131.52,189.29 258.46,157.86 277.6,-68.74 175.06,-483.42 -94.03,-418.85l0 -0.01zm61.35 1045.51c23.46,-105.11 -239.42,-234.52 -268.45,-170.12 -28.54,63.32 175.81,219.3 268.45,170.12zm-409.75 -578.64l118.22 2.63 -73.24 -116.86c-5.59,19.85 -9.89,38.39 -17.73,58.53 -8.73,22.44 -19.25,35.9 -27.23,55.7l-0.01 0z"/>
    <path class="fil0" d="M1320.52 1966.39c143.15,0 210.83,-25.03 275.78,-136.22 49.93,-85.46 102,-166.41 148.22,-249.95 -37.5,18.52 -50.62,37.69 -106.52,52.53 -46.24,12.28 -98.35,14.81 -149.67,12.36 -499.51,-23.84 -1351.75,-587.13 -1290.59,-990.27 -19.32,18.38 -54.15,83.15 -69.08,107.85 -22.98,37.99 -44.37,74.35 -65.14,109.03 -54.87,91.62 -90.15,141.15 -37.9,273.07 151.03,381.31 861.89,821.62 1294.91,821.62l0 -0zm-103.31 -72.69c107.21,12.31 73.59,13.07 166.47,7.58 18.36,-29.59 36.9,-61.91 54.9,-93.15 19.96,-34.63 39.24,-66.61 54.38,-97.9l-174.35 -22.07c-11.8,36.71 -76.84,132.62 -98.22,173.61l-4.61 27.01c0.14,1.08 0.66,3.39 1.43,4.91l-0 0zm-1033.1 -615.59c16.6,-20.37 112.33,-186.51 117.11,-209.55 -46.47,-37.46 -64.01,-95.76 -103.36,-132.18 -16.6,28.41 -32.85,56.27 -49.06,85.24 -62.59,111.87 -77.97,91.89 -26.98,175.55 14.44,23.69 40.9,69.29 62.29,80.94l0 -0zm77.79 95.42c34.87,35.81 75.82,80.55 115.92,107.52l123.66 -209.5 -121.69 -108.71c-18.8,28.2 -112.07,185.48 -117.9,210.7l0 -0zm677.77 444.84c34.67,11.41 118.85,46.91 154.87,44.97l118.86 -205.18 -156.73 -53.54c-23.56,56 -106.52,168.43 -116.99,213.75l-0.01 0.01zm-246.19 -122.33c19.9,21.53 117.15,67.06 141.59,75.56l121.95 -209.46c-22.16,-16.83 -114.49,-65.18 -140.13,-73.81l-123.41 207.69 0 0.01zm-225.72 -140.33c28.97,18.76 97.05,73.35 129.59,83.67l123.09 -206.92c-8.63,-9.54 -110.32,-82.07 -129.54,-90 -17.69,15.53 -116.51,190.57 -123.14,213.25z"/>
    <path class="fil0" d="M1657.24 714.79l-4.66 267.3c172.11,-1.53 164.66,85.62 265.55,103.93l8.99 -468.36c-43.99,6.67 -82.85,41.29 -118.07,62.73 -61.07,37.19 -77.33,23.49 -151.81,34.4l0.01 0z"/>
   </g>
  </g>
 </g>
</svg>
