<svg width="30" height="28" viewBox="0 0 30 28" fill="none" xmlns="http://www.w3.org/2000/svg">
<path d="M26.4749 10.0631C23.9108 10.0631 22.8624 8.24975 24.1374 6.02558C24.8741 4.73642 24.4349 3.09308 23.1458 2.35642L20.6949 0.953916C19.5758 0.288082 18.1308 0.684749 17.4649 1.80392L17.3091 2.07308C16.0341 4.29725 13.9374 4.29725 12.6483 2.07308L12.4924 1.80392C12.3397 1.53614 12.1353 1.30141 11.891 1.11338C11.6467 0.925357 11.3675 0.787792 11.0695 0.708693C10.7716 0.629593 10.4609 0.610538 10.1555 0.652638C9.85013 0.694737 9.55618 0.797149 9.29075 0.953916L6.83992 2.35642C5.55075 3.09308 5.11159 4.75058 5.84825 6.03975C7.13742 8.24975 6.08909 10.0631 3.52492 10.0631C2.05159 10.0631 0.833252 11.2672 0.833252 12.7547V15.2481C0.833252 16.7214 2.03742 17.9397 3.52492 17.9397C6.08909 17.9397 7.13742 19.7531 5.84825 21.9772C5.11159 23.2664 5.55075 24.9097 6.83992 25.6464L9.29075 27.0489C10.4099 27.7147 11.8549 27.3181 12.5208 26.1989L12.6766 25.9297C13.9516 23.7056 16.0483 23.7056 17.3374 25.9297L17.4933 26.1989C18.1591 27.3181 19.6041 27.7147 20.7233 27.0489L23.1741 25.6464C24.4633 24.9097 24.9024 23.2522 24.1658 21.9772C22.8766 19.7531 23.9249 17.9397 26.4891 17.9397C27.9624 17.9397 29.1808 16.7356 29.1808 15.2481V12.7547C29.1733 12.0407 28.8854 11.3583 28.3792 10.8547C27.8729 10.3511 27.189 10.0668 26.4749 10.0631ZM14.9999 18.6056C12.4641 18.6056 10.3958 16.5372 10.3958 14.0014C10.3958 11.4656 12.4641 9.39725 14.9999 9.39725C17.5358 9.39725 19.6041 11.4656 19.6041 14.0014C19.6041 16.5372 17.5358 18.6056 14.9999 18.6056Z" fill="white"/>
</svg>
