<svg width="27" height="24" viewBox="0 0 27 24" fill="none" xmlns="http://www.w3.org/2000/svg">
<path d="M0.428589 9.10625V7.81458C0.428589 5.46806 1.5588 3.57899 3.81921 2.1474C6.07963 0.715799 9.25498 0 13.3453 0C17.4355 0 20.6109 0.715799 22.8713 2.1474C25.1317 3.57899 26.2619 5.46806 26.2619 7.81458V9.10625H0.428589ZM2.43067 7.16875H24.2598C24.1953 5.68333 23.1565 4.4401 21.1437 3.43906C19.1308 2.43802 16.5314 1.9375 13.3453 1.9375C10.1591 1.9375 7.5489 2.43802 5.51453 3.43906C3.48015 4.4401 2.4522 5.68333 2.43067 7.16875ZM0.428589 14.7896V12.8521C0.98216 12.7321 1.75793 12.6153 2.28536 12.1417C2.81279 11.6681 3.65776 11.4313 4.82026 11.4313C5.98276 11.4313 6.75237 11.6681 7.12911 12.1417C7.50585 12.6153 8.13553 12.8521 9.01817 12.8521C9.90081 12.8521 10.552 12.6153 10.9718 12.1417C11.3916 11.6681 12.1828 11.4313 13.3453 11.4313C14.5078 11.4313 15.2989 11.6681 15.7187 12.1417C16.1385 12.6153 16.7897 12.8521 17.6723 12.8521C18.555 12.8521 19.1847 12.6153 19.5614 12.1417C19.9381 11.6681 20.7078 11.4313 21.8703 11.4313C23.0328 11.4313 23.8777 11.6681 24.4052 12.1417C24.9326 12.6153 25.5515 12.8521 26.2619 12.8521V14.7896C25.0994 14.7896 24.2975 14.5528 23.8562 14.0792C23.4149 13.6056 22.7529 13.3688 21.8703 13.3688C20.9876 13.3688 20.3579 13.6056 19.9812 14.0792C19.6045 14.5528 18.8348 14.7896 17.6723 14.7896C16.5098 14.7896 15.7187 14.5528 15.2989 14.0792C14.8791 13.6056 14.2279 13.3688 13.3453 13.3688C12.4626 13.3688 11.8114 13.6056 11.3916 14.0792C10.9718 14.5528 10.1807 14.7896 9.01817 14.7896C7.85567 14.7896 7.08606 14.5528 6.70932 14.0792C6.33258 13.6056 5.70289 13.3688 4.82026 13.3688C3.93762 13.3688 3.27564 13.6056 2.83432 14.0792C2.393 14.5528 1.59109 14.7896 0.428589 14.7896ZM2.36609 23.25C1.84942 23.25 1.39734 23.0562 1.00984 22.6687C0.622339 22.2812 0.428589 21.8292 0.428589 21.3125V17.1792H26.2619V21.3125C26.2619 21.8292 26.0682 22.2812 25.6807 22.6687C25.2932 23.0562 24.8411 23.25 24.3244 23.25H2.36609ZM2.36609 21.3125H24.3244V19.1167H2.36609V21.3125Z" fill="#4A4B56"/>
</svg>
