<svg width="28" height="28" viewBox="0 0 28 28" fill="none" xmlns="http://www.w3.org/2000/svg">
<path d="M25.6433 18.2583C25.1534 17.6545 24.5344 17.1681 23.8318 16.835C23.1292 16.5019 22.3609 16.3304 21.5833 16.3333C20.3467 16.3333 19.2033 16.765 18.305 17.4883C17.6872 17.9766 17.1886 18.599 16.847 19.3085C16.5054 20.018 16.3298 20.7959 16.3333 21.5833C16.3333 23.2283 17.08 24.6866 18.2583 25.6433C19.1567 26.39 20.3233 26.8333 21.5833 26.8333C22.9133 26.8333 24.115 26.3316 25.0483 25.5266C25.6079 25.0331 26.0564 24.4263 26.3641 23.7466C26.6718 23.0668 26.8317 22.3295 26.8333 21.5833C26.8333 20.3233 26.39 19.1566 25.6433 18.2583ZM22.785 21.91C22.785 22.2133 22.6217 22.505 22.365 22.6566L20.72 23.6366C20.58 23.7183 20.4283 23.765 20.265 23.765C19.9733 23.765 19.6817 23.6133 19.5183 23.345C19.2733 22.925 19.4017 22.3883 19.8217 22.1433L21.035 21.42V19.95C21.035 19.4716 21.4317 19.075 21.91 19.075C22.3883 19.075 22.785 19.4716 22.785 19.95V21.91ZM17.185 6.83665V2.91665C17.185 2.58998 16.9283 2.33331 16.6017 2.33331H11.3983C11.0717 2.33331 10.815 2.58998 10.815 2.91665V6.83665C10.815 7.16331 11.0717 7.41998 11.3983 7.41998H16.6017C16.9283 7.41998 17.185 7.16331 17.185 6.83665ZM8.45717 2.35665C5.4705 2.54331 3.42884 4.08331 2.6705 6.64998C2.55384 7.03498 2.83384 7.41998 3.2305 7.41998H8.4805C8.80717 7.41998 9.06384 7.16331 9.06384 6.83665V2.93998C9.0639 2.86137 9.04807 2.78356 9.01731 2.71122C8.98655 2.63889 8.94148 2.57351 8.88482 2.51903C8.82815 2.46454 8.76106 2.42207 8.68757 2.39417C8.61408 2.36627 8.53571 2.3535 8.45717 2.35665ZM19.5417 2.34381C22.5283 2.53048 24.57 4.07048 25.3283 6.63715C25.445 7.02215 25.165 7.40715 24.7683 7.40715H19.5183C19.1917 7.40715 18.935 7.15048 18.935 6.82381V2.92715C18.9349 2.84854 18.9508 2.77073 18.9815 2.69839C19.0123 2.62605 19.0574 2.56068 19.114 2.50619C19.1707 2.45171 19.2378 2.40924 19.3113 2.38134C19.3848 2.35343 19.4631 2.34067 19.5417 2.34381Z" fill="#F74346"/>
<path d="M25.6667 9.75332V14.8633C25.6667 15.295 25.2117 15.575 24.8267 15.3766C23.4908 14.6804 21.9663 14.4327 20.4787 14.6701C18.9911 14.9075 17.6195 15.6175 16.5667 16.695C15.287 17.9992 14.5742 19.7561 14.5834 21.5833C14.5834 22.5283 14.9567 23.7416 15.4234 24.7566C15.61 25.165 15.33 25.6666 14.875 25.6666H9.11171C5.36671 25.6666 2.33337 22.6333 2.33337 18.8883V9.75332C2.33337 9.42665 2.59004 9.16998 2.91671 9.16998H25.0834C25.41 9.16998 25.6667 9.42665 25.6667 9.75332Z" fill="#F74346"/>
</svg>
