<svg width="24" height="24" viewBox="0 0 24 24" fill="none" xmlns="http://www.w3.org/2000/svg">
<path d="M15.185 0.333313H8.81498V5.41998H15.185V0.333313ZM16.935 0.333313V5.41998H23.515C22.92 2.21165 20.5516 0.34498 16.935 0.333313ZM0.333313 7.16998V16.8883C0.333313 21.135 2.86498 23.6666 7.11165 23.6666H16.8883C21.135 23.6666 23.6666 21.135 23.6666 16.8883V7.16998H0.333313ZM14.8466 16.8766L12.42 18.2766C11.9066 18.5683 11.405 18.72 10.9383 18.72C10.5883 18.72 10.2733 18.6383 9.98165 18.475C9.30498 18.09 8.93165 17.2966 8.93165 16.27V13.47C8.93165 12.4433 9.30498 11.65 9.98165 11.265C10.6583 10.8683 11.5216 10.9383 12.42 11.4633L14.8466 12.8633C15.745 13.3766 16.235 14.1 16.235 14.8816C16.235 15.6633 15.7333 16.3516 14.8466 16.8766ZM7.06381 0.333313C3.44715 0.34498 1.07881 2.21165 0.483813 5.41998H7.06381V0.333313Z" fill="#F74346"/>
</svg>
