<svg width="27" height="27" viewBox="0 0 27 27" fill="none" xmlns="http://www.w3.org/2000/svg">
<path d="M2.835 7.99875H24.165M9.585 2.37375V7.84125M17.415 2.37375V7.335M24.75 10.125V16.875C24.75 17.1225 24.75 17.37 24.7275 17.6062C24.2551 17.024 23.6582 16.555 22.9807 16.2338C22.3032 15.9125 21.5623 15.7472 20.8125 15.75C19.62 15.75 18.5175 16.1662 17.6512 16.8637C17.0555 17.3346 16.5747 17.9348 16.2453 18.6189C15.9159 19.3031 15.7465 20.0532 15.75 20.8125C15.75 22.3987 16.47 23.805 17.6062 24.7275C17.37 24.75 17.1225 24.75 16.875 24.75H10.125C4.5 24.75 2.25 22.5 2.25 16.875V10.125C2.25 4.5 4.5 2.25 10.125 2.25H16.875C22.5 2.25 24.75 4.5 24.75 10.125Z" stroke="#4A4B56" stroke-width="1.6875" stroke-linecap="round" stroke-linejoin="round"/>
<path d="M25.875 20.8125C25.875 22.3313 25.2 23.6813 24.1537 24.615C23.2537 25.3913 22.095 25.875 20.8125 25.875C19.5975 25.875 18.4725 25.4475 17.6062 24.7275C17.024 24.2551 16.555 23.6582 16.2337 22.9807C15.9125 22.3032 15.7472 21.5623 15.75 20.8125C15.75 19.215 16.4812 17.7863 17.6512 16.8638C18.5466 16.1419 19.6624 15.7488 20.8125 15.75C22.3987 15.75 23.805 16.47 24.7275 17.6063C25.4475 18.4725 25.875 19.5975 25.875 20.8125Z" stroke="#4A4B56" stroke-width="1.6875" stroke-miterlimit="10" stroke-linecap="round" stroke-linejoin="round"/>
<path d="M21.1275 19.2263V21.1275L19.5525 22.0725" stroke="#4A4B56" stroke-width="1.6875" stroke-miterlimit="10" stroke-linecap="round" stroke-linejoin="round"/>
</svg>
